<svg xmlns="http://www.w3.org/2000/svg" viewBox="0 0 251.2 40.1"><style>.st0{fill:#fff}.st1{fill:#00c800}.st2{fill:#afafaf}.st5{fill:#49aa2b}</style><path class="st0" d="M64.1 21h-2l-1.6-4.3H54L52.4 21h-2l5.9-15.4h1.9L64.1 21zm-4.2-5.9l-2.4-6.6c-.1-.2-.2-.6-.2-1-.1.4-.2.8-.2 1l-2.4 6.6h5.2zM65.5 20.4v-2.1c.2.2.5.4.9.6.3.2.7.3 1.1.4.4.1.8.2 1.1.3.4.1.7.1 1.1.1 1.1 0 1.9-.2 2.5-.6.5-.4.8-1 .8-1.8 0-.4-.1-.8-.3-1.1-.2-.3-.4-.6-.8-.8-.3-.3-.7-.5-1.1-.7-.4-.2-.9-.5-1.4-.7-.5-.3-1-.5-1.5-.8-.5-.3-.9-.6-1.2-.9-.3-.3-.6-.7-.8-1.1-.2-.4-.3-.9-.3-1.5 0-.7.2-1.3.5-1.8s.7-.9 1.2-1.3c.4-.6 1-.9 1.7-1 .6-.2 1.3-.2 2-.2 1.5 0 2.6.2 3.3.5v2c-1-.6-2.1-.9-3.6-.9-.4 0-.8 0-1.2.1-.4.1-.7.2-1.1.4-.3.2-.6.4-.8.7-.2.3-.3.7-.3 1.1 0 .4.1.7.2 1 .1.3.4.5.7.8.3.2.6.5 1.1.7.4.2.9.5 1.4.7.6.3 1.1.6 1.6.9.5.3.9.6 1.3 1s.7.8.9 1.2c.2.4.3 1 .3 1.5 0 .8-.1 1.4-.4 1.9-.3.5-.7 1-1.2 1.3-.5.3-1.1.6-1.7.7-.7.1-1.4.2-2.1.2-.2 0-.5 0-.9-.1-.4 0-.7-.1-1.1-.2-.4-.1-.7-.2-1.1-.3-.3.1-.6-.1-.8-.2zM76.3 20.4v-2.1c.2.2.5.4.9.6.3.2.7.3 1.1.4.4.1.8.2 1.1.3.4.1.7.1 1.1.1 1.1 0 1.9-.2 2.5-.6.5-.4.8-1 .8-1.8 0-.4-.1-.8-.3-1.1-.2-.3-.4-.6-.8-.8-.3-.3-.7-.5-1.1-.7-.4-.2-.9-.5-1.4-.7-.5-.3-1-.5-1.5-.8-.5-.3-.9-.6-1.2-.9-.3-.3-.6-.7-.8-1.1-.2-.4-.3-.9-.3-1.5 0-.7.2-1.3.5-1.8s.7-.9 1.2-1.3c.4-.6.9-.9 1.6-1 .6-.2 1.3-.2 2-.2 1.5 0 2.6.2 3.3.5v2c-.9-.6-2.1-.9-3.5-.9-.4 0-.8 0-1.2.1-.4.1-.7.2-1.1.4-.3.2-.6.4-.8.7-.2.3-.3.7-.3 1.1 0 .4.1.7.2 1 .1.3.4.5.7.8.3.2.6.5 1 .7.4.2.9.5 1.4.7.6.3 1.1.6 1.6.9.5.3.9.6 1.3 1s.7.8.9 1.2c.2.4.3 1 .3 1.5 0 .8-.1 1.4-.4 1.9-.3.5-.7 1-1.2 1.3-.5.3-1.1.6-1.7.7-.7.1-1.4.2-2.1.2-.2 0-.5 0-.9-.1-.4 0-.7-.1-1.1-.2-.4-.1-.7-.2-1.1-.3-.3.1-.5-.1-.7-.2zM88.8 21H87V5.6h1.8V21zM103.1 20c-1.6.9-3.3 1.3-5.2 1.3-2.2 0-4-.7-5.3-2.1-1.4-1.4-2-3.3-2-5.6 0-2.4.8-4.4 2.3-5.9 1.5-1.5 3.4-2.3 5.7-2.3 1.7 0 3.1.3 4.2.8v2C101.5 7.4 100 7 98.3 7c-1.7 0-3.1.6-4.3 1.8-1.1 1.2-1.7 2.7-1.7 4.6 0 2 .5 3.5 1.5 4.6 1 1.1 2.4 1.7 4.2 1.7 1.2 0 2.3-.2 3.1-.7v-4.3h-3.4V13h5.2v7zM117.2 21H115l-8-12.3c-.2-.3-.4-.6-.5-1h-.1c.1.3.1 1 .1 2.1V21h-1.8V5.6h2.3l7.7 12.1c.3.5.5.8.6 1-.1-.4-.1-1.2-.1-2.3V5.6h1.8V21zM133.2 21h-1.8V10.7 9.3c0-.5.1-1.1.1-1.7 0 .2-.1.4-.2.6l-.3.6c-.1.2-.2.4-.3.5-.1.2-.1.3-.2.4l-4 7.3h-.9l-4-7.3c0-.1-.1-.2-.2-.4s-.2-.3-.3-.5l-.3-.6c-.1-.2-.1-.4-.2-.6 0 .3.1.7.1 1.2V21H119V5.6h2.3l4 7.3c.2.3.3.6.4.9.1.3.2.5.3.7h.1c.1-.2.2-.5.3-.8.1-.3.3-.6.5-.9l4-7.3h2.2V21zM144.3 21h-9.2V5.6h8.9v1.6h-7.1v5.1h6.6V14h-6.6v5.4h7.4V21zM158 21h-2.2l-7.9-12.3c-.2-.3-.4-.6-.5-1h-.1c.1.3.1 1 .1 2.1V21h-1.8V5.6h2.3l7.7 12.1c.3.5.5.8.6 1-.1-.4-.1-1.2-.1-2.3V5.6h1.8V21zM170.5 7.2H166V21h-1.8V7.2h-4.4V5.6h10.7v1.6z"/><path class="st1" d="M184.7 5.6h4.2l2.9 4.7 2.9-4.7h2.8l-4.4 6.8 5.1 8.6h-4.3l-3.1-5.2-3.6 5.2h-2.7l4.8-7.4-4.6-8zM211.9 10.1c0 1.3-.3 2.2-.8 2.9-.5.7-1.2 1.1-2 1.4-.8.2-1.8.3-2.9.3H203V21h-3.5V5.6h7.1c1.6 0 2.9.3 3.8 1 1 .6 1.5 1.8 1.5 3.5zm-3.3-.1c0-.8-.2-1.4-.7-1.8-.4-.4-1-.6-1.6-.6h-3.2v5.3h3.1c.8 0 1.4-.2 1.8-.6.4-.5.6-1.3.6-2.3zM213.5 5.6H224v1.9h-7V12h5.8v1.9H217v5.2h7.1V21h-10.6V5.6zM172.6 5.6h10.5v1.9h-7V12h5.8v1.9h-5.8v5.2h7.1V21h-10.6V5.6zM243.4 7.5h-4.2V5.6h12v1.9H247V21h-3.5V7.5zM239.1 21l-4.2-6.6c.2 0 .4-.1.5-.1.8-.2 1.5-.7 2-1.4s.8-1.7.8-2.9c0-1.7-.5-2.8-1.4-3.5-.9-.7-2.2-1-3.8-1h-7.1V21h3.5v-6.4h2.1L235 21h4.1zm-9.8-13.5h3.2c.7 0 1.2.2 1.6.6.4.4.6 1 .7 1.8 0 1.1-.2 1.8-.6 2.2-.4.4-1 .6-1.8.6h-3.1V7.5z"/><g><path class="st2" d="M50.1 33.9v-6.3h2.2c.5 0 .9 0 1.1.1.4.1.7.2.9.4.3.3.6.6.7 1.1.2.4.2.9.2 1.5 0 .5-.1.9-.2 1.3s-.3.7-.4.9l-.6.6c-.2.1-.5.2-.7.3-.3.1-.6.1-1 .1h-2.2zm.9-.8h1.3c.4 0 .7 0 1-.1l.6-.3c.2-.2.3-.5.5-.8.1-.3.2-.7.2-1.2 0-.7-.1-1.2-.3-1.5-.2-.4-.5-.6-.8-.7-.2-.1-.6-.1-1.1-.1H51v4.7zM59.9 30.8c0-1 .3-1.9.8-2.4.6-.6 1.3-.9 2.2-.9.6 0 1.1.1 1.6.4.5.3.8.7 1.1 1.2.2.5.4 1.1.4 1.7 0 .6-.1 1.2-.4 1.7-.3.5-.6.9-1.1 1.1-.5.3-1 .4-1.5.4-.6 0-1.1-.1-1.6-.4-.5-.3-.8-.7-1.1-1.2-.3-.5-.4-1-.4-1.6zm.8 0c0 .8.2 1.3.6 1.8.4.4.9.7 1.5.7s1.1-.2 1.5-.7c.4-.4.6-1.1.6-1.9 0-.5-.1-1-.3-1.3-.2-.4-.4-.7-.8-.9-.3-.2-.7-.3-1.1-.3-.6 0-1.1.2-1.5.6-.3.4-.5 1.1-.5 2zM70.7 33.9v-6.3h.8v6.3h-.8zM76.7 33.9v-6.3h.8l3.3 4.9v-4.9h.8v6.3h-.8L77.5 29v4.9h-.8zM89.6 31.4v-.7h2.6V33c-.4.3-.8.6-1.3.7-.4.2-.9.2-1.3.2-.6 0-1.2-.1-1.7-.4-.5-.3-.9-.6-1.1-1.1-.3-.5-.4-1.1-.4-1.7 0-.6.1-1.2.4-1.7.3-.5.6-.9 1.1-1.2.5-.3 1-.4 1.7-.4.5 0 .9.1 1.2.2.4.1.7.4.9.6.2.3.4.6.5 1l-.7.2c-.1-.3-.2-.6-.3-.8-.1-.2-.3-.3-.6-.4s-.5-.2-.9-.2-.7.1-1 .2-.5.3-.7.5-.3.4-.4.6c-.2.4-.2.8-.2 1.3 0 .6.1 1 .3 1.4.2.4.5.7.8.8.4.2.8.3 1.2.3.4 0 .7-.1 1-.2.3-.1.6-.3.8-.4v-1.2h-1.9zM104.8 33.9v-2.6l-2.4-3.6h1l1.2 1.9c.2.4.4.7.6 1.1.2-.3.4-.7.7-1.1l1.2-1.8h1l-2.5 3.6V34h-.8zM112.3 30.8c0-1 .3-1.9.8-2.4.6-.6 1.3-.9 2.2-.9.6 0 1.1.1 1.6.4.5.3.8.7 1.1 1.2.2.5.4 1.1.4 1.7 0 .6-.1 1.2-.4 1.7-.3.5-.6.9-1.1 1.1-.5.3-1 .4-1.5.4-.6 0-1.1-.1-1.6-.4-.5-.3-.8-.7-1.1-1.2s-.4-1-.4-1.6zm.8 0c0 .8.2 1.3.6 1.8.4.4.9.7 1.5.7s1.1-.2 1.5-.7c.4-.4.6-1.1.6-1.9 0-.5-.1-1-.3-1.3-.2-.4-.4-.7-.8-.9-.3-.2-.7-.3-1.1-.3-.6 0-1.1.2-1.5.6-.2.4-.5 1.1-.5 2zM127.1 27.6h.8v3.6c0 .6-.1 1.1-.2 1.5-.1.4-.4.7-.8.9-.4.2-.9.3-1.5.3s-1.1-.1-1.4-.3c-.4-.2-.6-.5-.8-.9-.2-.4-.2-.9-.2-1.6v-3.6h.8v3.6c0 .5.1.9.2 1.2.1.3.3.5.5.6.2.1.5.2.9.2.6 0 1-.1 1.3-.4.3-.3.4-.8.4-1.6v-3.5zM133 33.9v-6.3h2.8c.6 0 1 .1 1.3.2.3.1.5.3.7.6.2.3.3.6.3.9 0 .4-.1.8-.4 1.1-.3.3-.7.5-1.3.6.2.1.4.2.5.3.2.2.5.5.7.8l1.1 1.7h-1l-.8-1.3c-.2-.4-.4-.7-.6-.9l-.4-.4c-.1-.1-.2-.1-.4-.2H134v2.8h-1zm.8-3.5h1.8c.4 0 .7 0 .9-.1.2-.1.4-.2.5-.4.1-.2.2-.4.2-.6 0-.3-.1-.5-.3-.7-.2-.2-.6-.3-1-.3h-2v2.1zM147.9 33.9l2.4-6.3h.9l2.6 6.3h-.9l-.7-1.9h-2.6l-.7 1.9h-1zm1.8-2.6h2.1l-.7-1.7c-.2-.5-.3-1-.4-1.3l-.3 1.2-.7 1.8zM157.8 31.9l.8-.1c0 .3.1.6.3.8.1.2.3.4.6.5.3.1.6.2 1 .2.3 0 .6 0 .8-.1.2-.1.4-.2.5-.4.1-.2.2-.3.2-.5s-.1-.4-.2-.5c-.1-.1-.3-.3-.6-.4-.2-.1-.5-.2-1.1-.3-.6-.1-1-.3-1.2-.4-.3-.2-.5-.4-.7-.6-.1-.2-.2-.5-.2-.8 0-.3.1-.6.3-.9.2-.3.4-.5.8-.6.3-.1.7-.2 1.1-.2.5 0 .9.1 1.2.2s.6.4.8.7c.2.3.3.6.3 1l-.8.1c0-.4-.2-.7-.4-.9-.2-.2-.6-.3-1.1-.3-.5 0-.9.1-1.1.3-.2.2-.3.4-.3.7 0 .2.1.4.2.6.2.1.6.3 1.2.4.7.2 1.1.3 1.4.4.4.2.6.4.8.6.2.3.3.6.3.9 0 .3-.1.6-.3.9-.2.3-.5.5-.8.7-.4.2-.8.2-1.2.2-.6 0-1-.1-1.4-.2-.4-.2-.7-.4-.9-.7-.2-.5-.3-.9-.3-1.3zM167.3 31.9l.8-.1c0 .3.1.6.3.8.1.2.3.4.6.5.3.1.6.2 1 .2.3 0 .6 0 .8-.1.2-.1.4-.2.5-.4.1-.2.2-.3.2-.5s-.1-.4-.2-.5c-.1-.1-.3-.3-.6-.4-.2-.1-.5-.2-1.1-.3-.6-.1-1-.3-1.2-.4-.3-.2-.5-.4-.7-.6-.1-.2-.2-.5-.2-.8 0-.3.1-.6.3-.9.2-.3.4-.5.8-.6.3-.1.7-.2 1.1-.2.5 0 .9.1 1.2.2s.6.4.8.7c.2.3.3.6.3 1l-.8.1c0-.4-.2-.7-.4-.9-.2-.2-.6-.3-1.1-.3-.5 0-.9.1-1.1.3-.2.2-.3.4-.3.7 0 .2.1.4.2.6.2.1.6.3 1.2.4.7.2 1.1.3 1.4.4.4.2.6.4.8.6.2.3.3.6.3.9 0 .3-.1.6-.3.9-.2.3-.5.5-.8.7-.4.2-.8.2-1.2.2-.6 0-1-.1-1.4-.2-.4-.2-.7-.4-.9-.7-.2-.5-.3-.9-.3-1.3zM177.2 33.9v-6.3h.8v6.3h-.8zM186.1 31.4v-.7h2.6V33c-.4.3-.8.6-1.3.7-.4.2-.9.2-1.3.2-.6 0-1.2-.1-1.7-.4-.5-.3-.9-.6-1.1-1.1-.3-.5-.4-1.1-.4-1.7 0-.6.1-1.2.4-1.7.3-.5.6-.9 1.1-1.2.5-.3 1-.4 1.7-.4.5 0 .9.1 1.2.2.4.1.7.4.9.6.2.3.4.6.5 1l-.7.2c-.1-.3-.2-.6-.3-.8-.1-.2-.3-.3-.6-.4s-.5-.2-.9-.2-.7.1-1 .2-.5.3-.7.5c-.2.2-.3.4-.4.6-.2.4-.2.8-.2 1.3 0 .6.1 1 .3 1.4.2.4.5.7.8.8.4.2.8.3 1.2.3.4 0 .7-.1 1-.2.3-.1.6-.3.8-.4v-1.2h-1.9zM193.6 33.9v-6.3h.8l3.3 4.9v-4.9h.8v6.3h-.8l-3.3-4.9v4.9h-.8zM203.6 33.9v-6.3h1.2l1.5 4.4c.1.4.2.7.3.9.1-.2.2-.6.3-1l1.5-4.4h1.1v6.3h-.8v-5.2l-1.8 5.2h-.7l-1.8-5.3v5.3h-.8zM214.6 33.9v-6.3h4.5v.7h-3.7v1.9h3.5v.8h-3.5v2.1h3.8v.7h-4.6zM224 33.9v-6.3h.8l3.3 4.9v-4.9h.8v6.3h-.8l-3.3-4.9v4.9h-.8zM235.6 33.9v-5.5h-2.1v-.7h5v.7h-2.1v5.5h-.8zM242.7 31.9l.8-.1c0 .3.1.6.3.8.1.2.3.4.6.5.3.1.6.2 1 .2.3 0 .6 0 .8-.1.2-.1.4-.2.5-.4.1-.2.2-.3.2-.5s-.1-.4-.2-.5c-.1-.1-.3-.3-.6-.4-.2-.1-.5-.2-1.1-.3-.6-.1-1-.3-1.2-.4-.3-.2-.5-.4-.7-.6-.1-.2-.2-.5-.2-.8 0-.3.1-.6.3-.9.2-.3.4-.5.8-.6.3-.1.7-.2 1.1-.2.5 0 .9.1 1.2.2s.6.4.8.7c.2.3.3.6.3 1l-.8.1c0-.4-.2-.7-.4-.9-.2-.2-.6-.3-1.1-.3-.5 0-.9.1-1.1.3-.2.2-.3.4-.3.7 0 .2.1.4.2.6.2.1.6.3 1.2.4.7.2 1.1.3 1.4.4.4.2.6.4.8.6.2.3.3.6.3.9 0 .3-.1.6-.3.9-.2.3-.5.5-.8.7-.4.2-.8.2-1.2.2-.6 0-1-.1-1.4-.2-.4-.2-.7-.4-.9-.7-.1-.5-.2-.9-.3-1.3z"/></g><path d="M38.8 39.8H1.3c-.6 0-1-.4-1-1V1.3c0-.6.4-1 1-1h37.5c.6 0 1 .4 1 1v37.5c0 .6-.4 1-1 1z" fill="#1e1e1e"/><path d="M38 40.1H2c-1.1 0-2-.9-2-2.1V2C0 .9.9 0 2.1 0h36c1.1 0 2.1.9 2.1 2.1v36c-.1 1.1-1 2-2.2 2zM2.1.6C1.3.6.6 1.3.6 2.1v36c0 .8.7 1.5 1.5 1.5h36c.8 0 1.5-.7 1.5-1.5v-36c0-.8-.7-1.5-1.5-1.5h-36z" fill="#545454"/><g><path d="M28.2 31.2h-1.3-.1c-.3-.6-.6-1.1-.9-1.7l.1-.1c.9-1.1 1.5-2.2 1.9-3.3.8-2.4.4-4.8-1-7.1-.2-.4-.6-1.1-.9-1.5 1.5-.1 2.7-1.4 2.7-2.9 0-1-.6-2-1.4-2.5-.1-.1-.1-.1-.2-.1l2.3-4.5c0-.1 0-.1.1-.2.2-.3.4-.8.3-1.5-.1-.6-.5-1.1-1-1.3-.7-.3-1.3-.6-1.9-.9-.2-.1-.5-.2-.8-.2-.7 0-1.4.4-1.7 1.1-.1.1-.1.2-.2.4l-5.5 12.6h-.1c-.2-.1-.5-.2-.7-.2-.7 0-1.2.4-1.5 1-.1.1-.1.3-.1.4v.2c0 .6.4 1.1.9 1.4l.5.2c-.1.1-.1.3-.2.4-.2.6-.1 1.3.7 1.7-.1.3-.1.6 0 .9.1.2.2.4.3.5-.4-.2-.8-.4-1.2-.5l-1.7-.8c-.2-.1-.5-.2-.7-.2-.3 0-1 .1-1.4 1l-.1.2c-.3.7-.1 1.4.5 1.9-.1.1-.3.3-.4.6l-.6 1.2c-.4.9-.1 1.8.8 2.2 1.2.5 2.3 1.1 3.5 1.6h-4.7c-1.5 0-2.6 1.1-2.6 2.6v1.4h20.4v-.9c.1-1.6-.7-2.8-2.1-3.1zm-5.4-5.8l-.1.2c0 .1-.1.1-.1.1h-.1c-.3-.1-.7-.2-1-.3-.7-.3-1.5-.7-2.2-1 .6.1 1.2-.3 1.5-.8.2-.4.4-.8.6-1.3v-.1c.6.1 1.2-.1 1.5-.6 0-.1.1-.1.1-.2.1.3.2.7.3 1 .2 1.1 0 2.1-.5 3z"/><path class="st0" d="M19.2 28.7c.1-.3-.1-.5-.4-.7-.7-.3-1.5-.7-2.2-1-.4-.2-.9-.4-1.3-.6-.4-.2-.7-.1-.9.3l-.6 1.2c-.2.4-.1.7.3.9 1.2.5 2.3 1.1 3.5 1.6.3.1.6.1.8-.2-.3-.1-.6-.3-.9-.4-.4-.2-.5-.5-.4-.9.1-.5.5-.8.9-.7.1 0 .2 0 .3.1.4.1.6.3.9.4z"/><path class="st5" d="M17.1 18.7c0 .3.1.4.4.6 1.3.6 2.7 1.2 4 1.9.3.1.6.1.8-.2.2-.2.2-.5 0-.7-.1-.1-.2-.1-.3-.2-.7-.3-1.3-.6-2-.9-.6-.3-1.3-.6-1.9-.9-.3-.2-.7 0-.8.3-.2 0-.2.1-.2.1zM24.8 5.4c1.1.5 2.3 1.1 3.4 1.6.1-.4.4-.6.3-1.1-.1-.3-.2-.5-.5-.6-.6-.3-1.3-.6-1.9-.9-.5-.2-1 0-1.2.4 0 .2 0 .4-.1.6zM19.1 20.9c-.2-.1-.5-.2-.7-.3-.2.4-.3.7-.5 1-.1.2 0 .3.2.4.2.1.4.1.5-.1.1-.3.3-.7.5-1zM19.9 21.2L19 23c-.1.3 0 .5.3.7.2.1.5 0 .6-.2.3-.6.6-1.2.9-1.9l-.9-.4z"/><path class="st0" d="M23.5 14.5c0 .5.2 1 .5 1.3l1.5-3.4c-1.1.1-2 1-2 2.1z"/><path class="st0" d="M23.6 16.7c-.6-.6-1-1.3-1-2.2 0-1.6 1.3-2.9 2.9-2.9h.4l.1-.3 2-3.9c-1.1-.5-2.2-1-3.4-1.6-1.7 4-3.5 8-5.2 12.1 1.8.8 1 .4 2.7 1.3l.3-.6c.3.3.5.7.7 1 .6.9 1 1.8 1.2 2.9.2 1.3 0 2.5-.6 3.6 0 .1-.1.1-.1.2-.3.5-.8.7-1.3.6-.4-.1-.8-.2-1.2-.4-2-.9-3.9-1.8-5.9-2.7-.3-.1-.6 0-.7.3 0 .1-.1.2-.1.3-.1.3-.1.5.2.7.8.4 1.6.8 2.4 1.1l3.3 1.5c.3.2.5.5.4.9v.2l.1-.1c.4-.5.9-.8 1.7-.8h1c.3 0 .6.1.8.3.6.4.6.5.8.7.7-.9 1.3-1.9 1.7-3 .7-2.2.3-4.3-.9-6.3-.7-1.2-1.4-2.1-2.3-2.9z"/><path class="st5" d="M25.5 16.6c1.1 0 2-.9 2.1-2 0-1.1-.9-2-2-2s-2 .9-2 2c-.1 1.1.8 2 1.9 2zM10.9 34.3h18.4c.2-1-.3-1.8-1.2-2h-1.8c-.1 0-.2 0-.2-.1-.5-.9-.7-1.2-1.3-2.2-.3-.5-.8-.9-1.4-.9h-.8c-.6 0-1.1.3-1.4.9-.6.9-.6 1.4-1.1 2.3 0 .1-.3.1-.4.1h-7.1c-1 0-1.6.6-1.6 1.6-.1 0-.1.1-.1.3z"/><path class="st0" d="M20.2 29.6c-.6-.3-1.3-.6-1.9-.9h-.2c-.1 0-.2.1-.3.3-.1.3 0 .4.1.5.5.2 1 .5 1.6.7l.3.2.4-.8z"/></g></svg>